<?xml version="1.0" encoding="utf-8"?>
<svg xmlns="http://www.w3.org/2000/svg" viewBox="0 0 24 24" fill="#000000"><path d="M 19.171875 2 C 18.448125 2 17.724375 2.275625 17.171875 2.828125 L 16 4 L 20 8 L 21.171875 6.828125 C 22.275875 5.724125 22.275875 3.933125 21.171875 2.828125 C 20.619375 2.275625 19.895625 2 19.171875 2 z M 8 2.828125 C 7.48825 2.828125 6.9764375 3.0235625 6.5859375 3.4140625 L 3.4140625 6.5859375 C 2.6330625 7.3669375 2.6330625 8.6330625 3.4140625 9.4140625 L 5.0546875 11.054688 C 5.4456875 11.445688 6.07875 11.445688 6.46875 11.054688 C 6.85975 10.664687 6.8607031 10.031625 6.4707031 9.640625 L 4.828125 8 L 8 4.828125 L 9.640625 6.4707031 C 10.031625 6.8617031 10.664688 6.8617031 11.054688 6.4707031 C 11.445688 6.0797031 11.445688 5.4466406 11.054688 5.0566406 L 9.4140625 3.4140625 C 9.0235625 3.0235625 8.51175 2.828125 8 2.828125 z M 14.5 5.5 L 3.5859375 16.414062 C 3.2109375 16.789062 3 17.298125 3 17.828125 L 3 21 L 6.171875 21 C 6.701875 21 7.2109375 20.789062 7.5859375 20.414062 L 18.5 9.5 L 14.5 5.5 z M 18.238281 12.652344 C 17.982281 12.652219 17.724797 12.748359 17.529297 12.943359 C 17.138297 13.334359 17.138297 13.967422 17.529297 14.357422 L 19.171875 16 L 16 19.171875 L 14.359375 17.53125 C 13.968375 17.14025 13.335313 17.14025 12.945312 17.53125 C 12.554312 17.92225 12.554313 18.555312 12.945312 18.945312 L 14.585938 20.585938 C 15.366938 21.366937 16.633063 21.366937 17.414062 20.585938 L 20.585938 17.414062 C 21.366937 16.633063 21.366938 15.366937 20.585938 14.585938 L 18.945312 12.945312 C 18.749812 12.749813 18.494281 12.652469 18.238281 12.652344 z" fill="#000000"/></svg>
