<?xml version="1.0" encoding="utf-8"?>
<svg xmlns="http://www.w3.org/2000/svg" viewBox="0 0 24 24" fill="#000000"><path d="M 7.8886719 2.0898438 A 1.0001 1.0001 0 0 0 7.1933594 3.8066406 L 9.5761719 6.1894531 L 3.7988281 11.787109 L 3.7929688 11.792969 C 2.6394154 12.946522 2.6394154 14.854259 3.7929688 16.007812 L 8.8925781 21.107422 C 10.046132 22.260975 11.903752 22.311091 13.007812 21.207031 L 18.107422 16.107422 C 19.260975 14.953868 19.260975 13.046132 18.107422 11.892578 L 16.164062 9.9511719 A 1.0001 1.0001 0 0 0 16.107422 9.8925781 L 8.6074219 2.3925781 A 1.0001 1.0001 0 0 0 7.8886719 2.0898438 z M 10.988281 7.6035156 L 14.693359 11.306641 L 16.693359 13.306641 C 16.916583 13.529864 17.027344 13.764932 17.027344 14 L 4.8964844 14 C 4.8603635 13.731888 4.9521709 13.461892 5.2070312 13.207031 L 10.988281 7.6035156 z M 20 16.400391 C 19.8415 16.400391 19.682938 16.476906 19.585938 16.628906 C 18.999938 17.544906 18 19.222 18 20 C 18 21.1 18.9 22 20 22 C 21.1 22 22 21.1 22 20 C 22 19.222 21.000063 17.544906 20.414062 16.628906 C 20.317062 16.476906 20.1585 16.400391 20 16.400391 z" fill="#000000"/></svg>
