<?xml version="1.0" encoding="utf-8"?>
<svg xmlns="http://www.w3.org/2000/svg" viewBox="0 0 24 24" fill="#ffffff"><path d="M 8.96875 2.9355469 L 3.6289062 5.0722656 C 3.2489063 5.2242656 3 5.591 3 6 L 3 20 C 3 20.707 3.7140937 21.190734 4.3710938 20.927734 L 9.03125 19.064453 L 15.03125 21.064453 L 20.371094 18.927734 C 20.751094 18.775734 21 18.409 21 18 L 21 4 C 21 3.293 20.285906 2.8092656 19.628906 3.0722656 L 14.96875 4.9355469 L 8.96875 2.9355469 z M 9.03125 5.0644531 L 15.03125 7.0644531 L 19 5.4765625 L 19 17.322266 L 14.96875 18.935547 L 8.96875 16.935547 L 5 18.523438 L 5 6.6777344 L 9.03125 5.0644531 z M 9 8 L 7.5527344 8.7246094 C 7.2137344 8.8936094 7 9.2381875 7 9.6171875 L 7 16 L 8.3105469 15.574219 C 8.7215469 15.440219 9 15.056047 9 14.623047 L 9 12 L 11 13 L 13 15 L 13 16 L 15 17 L 15 14 L 16.447266 13.275391 C 16.786266 13.106391 17 12.761812 17 12.382812 L 17 10 C 17 9.448 16.552 9 16 9 L 15 9 L 12 8 L 11 9 L 9 8 z" fill="#ffffff"/></svg>
