<svg width="24" height="25" viewBox="0 0 24 25" fill="none" xmlns="http://www.w3.org/2000/svg">
<path d="M9 2.5L7.46875 3.5C7.46875 3.5 7.45703 6.39062 12 8.21875C16.5391 6.375 16.5312 3.5 16.5312 3.5L15 2.5C15 2.5 14.3359 3.625 13 4.0625L12 6.5L11 4.0625C9.66406 3.625 9 2.5 9 2.5ZM6.46875 3.6875C4.83203 4.09766 3.06641 5.19922 2.03125 7.3125C3.07422 7.63281 4.71875 8.96484 4.71875 10.6875C6.98438 10.6875 8.69141 9.22656 9.65625 8.125C6.97656 6.40625 6.53516 4.33203 6.46875 3.6875ZM17.5312 3.6875C17.4648 4.33203 17.0234 6.40625 14.3438 8.125C15.3086 9.22656 17.0156 10.6875 19.2812 10.6875C19.2812 8.96484 20.9258 7.63281 21.9688 7.3125C20.9336 5.19922 19.168 4.09766 17.5312 3.6875ZM10.5312 8.625C10.5312 8.625 8.64453 11.6562 5.15625 11.6562C4.46484 15.9766 6.3125 17.75 6.3125 17.75C6.3125 17.75 8.20312 19.5 12 19.5C15.7969 19.5 17.6875 17.75 17.6875 17.75C17.6875 17.75 19.5352 15.9766 18.8438 11.6562C15.3555 11.6562 13.4688 8.625 13.4688 8.625C13.1328 8.80078 12.0117 9.27734 12 9.28125C11.9883 9.27734 10.8672 8.80078 10.5312 8.625ZM2.5625 8.75C2.24609 9.4375 2 12.2461 2 13.0938C2.70703 13.2383 3.625 13.6484 4 14.125C4.14844 9.77344 3.46094 9.38281 2.5625 8.75ZM21.4375 8.75C20.5391 9.38281 19.8516 9.77344 20 14.125C20.375 13.6484 21.293 13.2383 22 13.0938C22 12.2461 21.7539 9.4375 21.4375 8.75ZM5.78125 18.625L5 20.1562C5 20.1562 7.45703 22.5 12 22.5C16.543 22.5 19 20.1562 19 20.1562L18.2188 18.625C17.6719 19.0625 15.5938 20.5 12 20.5C8.42578 20.5 6.35156 19.0781 5.78125 18.625Z" fill="white"/>
</svg>
