<svg width="25" height="25" viewBox="0 0 25 25" fill="none" xmlns="http://www.w3.org/2000/svg">
<path d="M9.5 2.5C7.85499 2.5 6.5 3.85499 6.5 5.5C6.5 5.85185 6.57394 6.18511 6.6875 6.5H2.5V10.5H3.5V19.5C3.5 20.6 4.4 21.5 5.5 21.5H11.5V10.5H13.5V21.5H19.5C20.6 21.5 21.5 20.6 21.5 19.5V10.5H22.5V6.5H18.3125C18.4261 6.18511 18.5 5.85185 18.5 5.5C18.5 3.85499 17.145 2.5 15.5 2.5C14.7314 2.5 14.0333 2.80413 13.5 3.28711V3.26562L13.3828 3.38281L12.5 4.26562L11.6172 3.38281L11.5 3.26562V3.28711C10.9667 2.80413 10.2686 2.5 9.5 2.5ZM9.5 4.5C10.0641 4.5 10.5 4.93587 10.5 5.5C10.5 6.06413 10.0641 6.5 9.5 6.5C8.93587 6.5 8.5 6.06413 8.5 5.5C8.5 4.93587 8.93587 4.5 9.5 4.5ZM15.5 4.5C16.0641 4.5 16.5 4.93587 16.5 5.5C16.5 6.06413 16.0641 6.5 15.5 6.5C14.9359 6.5 14.5 6.06413 14.5 5.5C14.5 4.93587 14.9359 4.5 15.5 4.5Z" fill="white"/>
</svg>
