<svg width="25" height="25" viewBox="0 0 25 25" fill="none" xmlns="http://www.w3.org/2000/svg">
<path d="M11.5 2.5V4.5H13.5V2.5H11.5ZM13.5 4.5V6.5H11.5V4.5H3.5C2.397 4.5 1.5 5.397 1.5 6.5V18.5C1.5 19.603 2.397 20.5 3.5 20.5H21.5C22.603 20.5 23.5 19.603 23.5 18.5V6.5C23.5 5.397 22.603 4.5 21.5 4.5H13.5ZM8.5 8.5C9.633 8.5 10.5 9.367 10.5 10.5C10.5 11.633 9.633 12.5 8.5 12.5C7.367 12.5 6.5 11.633 6.5 10.5C6.5 9.367 7.367 8.5 8.5 8.5ZM14.5 9.5H20.5V11.5H14.5V9.5ZM8.5 13.5C10.685 13.5 12.5 14.4088 12.5 15.7168V16.5H4.5V15.7168C4.5 14.4088 6.315 13.5 8.5 13.5ZM14.5 13.5H20.5V15.5H14.5V13.5Z" fill="white"/>
</svg>
