<?xml version="1.0" encoding="utf-8"?>
<svg xmlns="http://www.w3.org/2000/svg" viewBox="0 0 24 24" fill="#000000"><path d="M 5 3 C 3.897 3 3 3.897 3 5 L 3 7 C 3 8.103 3.897 9 5 9 L 7 9 C 8.103 9 9 8.103 9 7 L 9 5 C 9 3.897 8.103 3 7 3 L 5 3 z M 17 3 C 15.897 3 15 3.897 15 5 L 15 7 C 15 8.103 15.897 9 17 9 L 19 9 C 20.103 9 21 8.103 21 7 L 21 5 C 21 3.897 20.103 3 19 3 L 17 3 z M 12 5 C 11.448 5 11 5.448 11 6 C 11 6.552 11.448 7 12 7 C 12.552 7 13 6.552 13 6 C 13 5.448 12.552 5 12 5 z M 6 11 C 5.448 11 5 11.448 5 12 C 5 12.552 5.448 13 6 13 C 6.552 13 7 12.552 7 12 C 7 11.448 6.552 11 6 11 z M 18 11 C 17.448 11 17 11.448 17 12 C 17 12.552 17.448 13 18 13 C 18.552 13 19 12.552 19 12 C 19 11.448 18.552 11 18 11 z M 5 15 C 3.897 15 3 15.897 3 17 L 3 19 C 3 20.103 3.897 21 5 21 L 7 21 C 8.103 21 9 20.103 9 19 L 9 17 C 9 15.897 8.103 15 7 15 L 5 15 z M 17 15 C 15.897 15 15 15.897 15 17 L 15 19 C 15 20.103 15.897 21 17 21 L 19 21 C 20.103 21 21 20.103 21 19 L 21 17 C 21 15.897 20.103 15 19 15 L 17 15 z M 12 17 C 11.448 17 11 17.448 11 18 C 11 18.552 11.448 19 12 19 C 12.552 19 13 18.552 13 18 C 13 17.448 12.552 17 12 17 z" fill="#000000"/></svg>
