<svg width="32" height="33" viewBox="0 0 32 33" fill="none" xmlns="http://www.w3.org/2000/svg">
<path d="M16 2.6333C14.0619 2.6333 12.2185 3.03723 10.5417 3.7583L11.55 4.76663C11.7591 4.9757 11.9411 5.20575 12.1 5.44788C13.3224 5.01482 14.6315 4.76663 16 4.76663C22.4694 4.76663 27.7334 10.0306 27.7334 16.5C27.7334 22.9693 22.4694 28.2333 16 28.2333C9.5307 28.2333 4.2667 22.9693 4.2667 16.5C4.2667 15.1314 4.51488 13.8234 4.94795 12.6021C4.70581 12.4431 4.47576 12.2601 4.2667 12.05L3.25836 11.0416C2.5373 12.7184 2.13336 14.5618 2.13336 16.5C2.13336 24.1458 8.35416 30.3666 16 30.3666C23.6459 30.3666 29.8667 24.1458 29.8667 16.5C29.8667 8.8541 23.6459 2.6333 16 2.6333ZM4.25628 3.68955C4.04408 3.68961 3.83673 3.75294 3.66072 3.87147C3.4847 3.98999 3.34804 4.15831 3.26819 4.35491C3.18834 4.55151 3.16894 4.76745 3.21247 4.97513C3.25599 5.18282 3.36046 5.3728 3.51253 5.5208L4.8917 6.89997H3.96253C3.28733 6.89997 2.94925 7.71585 3.42711 8.19372L5.77503 10.5416C6.17503 10.9416 6.71803 11.1666 7.28336 11.1666H9.15836L15.2459 17.2541C15.3442 17.3565 15.4619 17.4382 15.5921 17.4945C15.7224 17.5508 15.8626 17.5806 16.0045 17.582C16.1464 17.5835 16.2872 17.5566 16.4186 17.503C16.55 17.4493 16.6694 17.37 16.7697 17.2696C16.8701 17.1693 16.9494 17.0499 17.003 16.9185C17.0567 16.7871 17.0835 16.6464 17.0821 16.5045C17.0807 16.3626 17.0509 16.2224 16.9946 16.0921C16.9383 15.9618 16.8566 15.8441 16.7542 15.7458L10.6667 9.6583V7.7833C10.6667 7.21797 10.4417 6.67497 10.0417 6.27497L7.69378 3.92705C7.21591 3.44918 6.40003 3.78727 6.40003 4.46247V5.39163L5.02086 4.01247C4.92146 3.91029 4.80259 3.82907 4.67126 3.7736C4.53994 3.71814 4.39883 3.68956 4.25628 3.68955ZM16 6.89997C14.8651 6.89997 13.78 7.10707 12.7688 7.4708C12.7773 7.57533 12.8 7.6777 12.8 7.7833V8.77497L13.4979 9.47288C14.2819 9.19342 15.1222 9.0333 16 9.0333C20.1163 9.0333 23.4667 12.3826 23.4667 16.5C23.4667 20.6173 20.1163 23.9666 16 23.9666C11.8838 23.9666 8.53336 20.6173 8.53336 16.5C8.53336 15.6221 8.69241 14.7819 8.97295 13.9979L8.27503 13.3H7.28336C7.17776 13.3 7.0754 13.2773 6.97086 13.2687C6.6082 14.2799 6.40003 15.365 6.40003 16.5C6.40003 21.7928 10.7062 26.1 16 26.1C21.2939 26.1 25.6 21.7928 25.6 16.5C25.6 11.2072 21.2939 6.89997 16 6.89997ZM16 11.1666C15.7483 11.1666 15.5088 11.2075 15.2667 11.2416L18.2625 14.2375L18.2604 14.2396C18.8407 14.8188 19.2 15.6178 19.2 16.5C19.2 18.2642 17.7643 19.7 16 19.7C15.1179 19.7 14.3188 19.3407 13.7396 18.7604L13.7375 18.7625L10.7417 15.7666C10.7076 16.0088 10.6667 16.2482 10.6667 16.5C10.6667 19.4408 13.0592 21.8333 16 21.8333C18.9408 21.8333 21.3334 19.4408 21.3334 16.5C21.3334 13.5592 18.9408 11.1666 16 11.1666Z" fill="black"/>
</svg>
